<?xml version="1.0" encoding="iso-8859-1"?>
<!-- Generator: Adobe Illustrator 16.0.0, SVG Export Plug-In . SVG Version: 6.00 Build 0)  -->
<!DOCTYPE svg PUBLIC "-//W3C//DTD SVG 1.1//EN" "http://www.w3.org/Graphics/SVG/1.1/DTD/svg11.dtd">
<svg version="1.1" id="Capa_1" xmlns="http://www.w3.org/2000/svg" xmlns:xlink="http://www.w3.org/1999/xlink" x="0px" y="0px"
	 width="97.668px" height="97.667px" viewBox="0 0 97.668 97.667" style="enable-background:new 0 0 97.668 97.667;"
	 xml:space="preserve" fill="rgb(255,255,255)">
<g>
	<g>
		<path d="M12.639,72.389C5.67,72.389,0,78.059,0,85.028s5.67,12.638,12.639,12.638c6.969,0,12.639-5.669,12.639-12.638
			S19.607,72.389,12.639,72.389z"/>
		<path d="M2.102,36.384c-0.545-0.013-1.066,0.184-1.457,0.562c-0.39,0.377-0.609,0.896-0.609,1.438v16.217
			c0,1.068,0.841,1.948,1.909,1.998c21.334,0.973,38.156,17.795,39.129,39.129c0.049,1.067,0.929,1.908,1.998,1.908H59.29
			c0.542,0,1.062-0.22,1.438-0.608s0.578-0.916,0.562-1.457c-0.517-15.548-6.888-30.197-17.938-41.248
			C32.3,43.272,17.651,36.902,2.102,36.384z"/>
		<path d="M69.053,28.62C51.119,10.688,27.334,0.524,2.076,0.004c-0.54-0.026-1.058,0.194-1.44,0.571
			C0.252,0.952,0.035,1.466,0.035,2.003v16.208c0,1.085,0.865,1.972,1.95,2c40.601,1.02,74.458,34.878,75.476,75.475
			c0.025,1.085,0.914,1.949,1.999,1.949h16.208c0.537,0,1.053-0.216,1.43-0.601c0.375-0.384,0.582-0.903,0.57-1.441
			C97.146,70.334,86.982,46.548,69.053,28.62z"/>
	</g>
</g>
<g>
</g>
<g>
</g>
<g>
</g>
<g>
</g>
<g>
</g>
<g>
</g>
<g>
</g>
<g>
</g>
<g>
</g>
<g>
</g>
<g>
</g>
<g>
</g>
<g>
</g>
<g>
</g>
<g>
</g>
</svg>
